<svg width="16" height="16" viewBox="0 0 16 16" fill="none" xmlns="http://www.w3.org/2000/svg">
<g clip-path="url(#clip0_2001_540)">
<path d="M10 1.33334H4C3.64638 1.33334 3.30724 1.47382 3.05719 1.72387C2.80714 1.97392 2.66667 2.31305 2.66667 2.66668V13.3333C2.66667 13.687 2.80714 14.0261 3.05719 14.2762C3.30724 14.5262 3.64638 14.6667 4 14.6667H12C12.3536 14.6667 12.6928 14.5262 12.9428 14.2762C13.1929 14.0261 13.3333 13.687 13.3333 13.3333V4.66668L10 1.33334Z" stroke="#121212" stroke-width="1.33333" stroke-linecap="round" stroke-linejoin="round"/>
<path d="M9.33333 1.33334V4.00001C9.33333 4.35363 9.47381 4.69277 9.72386 4.94282C9.97391 5.19287 10.313 5.33334 10.6667 5.33334H13.3333" stroke="#121212" stroke-width="1.33333" stroke-linecap="round" stroke-linejoin="round"/>
<path d="M6.66667 6H5.33333" stroke="#121212" stroke-width="1.33333" stroke-linecap="round" stroke-linejoin="round"/>
<path d="M10.6667 8.66666H5.33333" stroke="#121212" stroke-width="1.33333" stroke-linecap="round" stroke-linejoin="round"/>
<path d="M10.6667 11.3333H5.33333" stroke="#121212" stroke-width="1.33333" stroke-linecap="round" stroke-linejoin="round"/>
</g>
<defs>
<clipPath id="clip0_2001_540">
<rect width="16" height="16" fill="white"/>
</clipPath>
</defs>
</svg>
