<svg width="16" height="16" viewBox="0 0 16 16" fill="none" xmlns="http://www.w3.org/2000/svg">
<g clip-path="url(#clip0_2001_534)">
<path d="M11.5556 9.4C11.3495 9.0338 11.0704 8.71386 10.7355 8.46003C10.4006 8.2062 10.0172 8.0239 9.60893 7.92444C9.22596 7.80955 8.83729 7.7146 8.44448 7.64V3.60889C9.22542 3.69265 9.97047 3.98086 10.6045 4.44444C10.6483 4.48325 10.6992 4.51307 10.7545 4.53217C10.8098 4.55128 10.8684 4.55931 10.9267 4.5558C10.9851 4.55229 11.0423 4.53732 11.0949 4.51173C11.1475 4.48614 11.1946 4.45044 11.2334 4.40666C11.2722 4.36289 11.302 4.3119 11.3211 4.2566C11.3402 4.20131 11.3482 4.14279 11.3447 4.08439C11.3412 4.026 11.3262 3.96886 11.3007 3.91625C11.2751 3.86364 11.2394 3.81659 11.1956 3.77777C10.4002 3.16515 9.44499 2.79481 8.44448 2.71111V1.33333C8.44448 1.21546 8.39766 1.10241 8.31431 1.01906C8.23096 0.935711 8.11791 0.888885 8.00004 0.888885C7.88216 0.888885 7.76912 0.935711 7.68577 1.01906C7.60242 1.10241 7.55559 1.21546 7.55559 1.33333V2.66666C5.60004 2.71111 4.52004 3.68444 4.19115 4.52444C3.97174 5.06535 3.9509 5.66647 4.13231 6.22127C4.31372 6.77608 4.68567 7.24876 5.18226 7.55555C5.9051 7.99619 6.71474 8.27517 7.55559 8.37333V12.4444C6.39529 12.386 5.28376 11.9595 4.38226 11.2267C4.34203 11.1788 4.29214 11.1399 4.23587 11.1127C4.1796 11.0854 4.1182 11.0703 4.05569 11.0684C3.99319 11.0664 3.93098 11.0777 3.87313 11.1015C3.81528 11.1252 3.7631 11.1609 3.72 11.2062C3.67689 11.2515 3.64383 11.3054 3.62298 11.3644C3.60213 11.4234 3.59396 11.4861 3.59899 11.5484C3.60403 11.6107 3.62217 11.6713 3.65222 11.7261C3.68226 11.781 3.72355 11.8289 3.77337 11.8667C4.83663 12.7614 6.16711 13.2773 7.55559 13.3333V14.6667C7.55559 14.7845 7.60242 14.8976 7.68577 14.9809C7.76912 15.0643 7.88216 15.1111 8.00004 15.1111C8.11791 15.1111 8.23096 15.0643 8.31431 14.9809C8.39766 14.8976 8.44448 14.7845 8.44448 14.6667V13.3333C9.69781 13.2489 11.1423 12.8489 11.6889 11.2178C11.7878 10.921 11.827 10.6075 11.8041 10.2955C11.7812 9.98355 11.6967 9.67918 11.5556 9.4ZM5.68448 6.80889C5.35995 6.6157 5.11497 6.31309 4.99358 5.95545C4.87219 5.5978 4.88236 5.20859 5.02226 4.85777C5.07115 4.72444 5.56893 3.60889 7.55559 3.55555V7.46666C6.89259 7.38135 6.25502 7.15722 5.68448 6.80889ZM10.8445 10.9156C10.5245 11.8667 9.81337 12.3244 8.44448 12.4267V8.54666C8.72893 8.60889 9.02226 8.68 9.33337 8.77333C9.62726 8.84008 9.9045 8.96591 10.1482 9.14317C10.392 9.32043 10.5971 9.54541 10.7511 9.80444C10.9255 10.1486 10.9589 10.5471 10.8445 10.9156Z" fill="#121212"/>
</g>
<defs>
<clipPath id="clip0_2001_534">
<rect width="16" height="16" fill="white"/>
</clipPath>
</defs>
</svg>
