<svg width="16" height="16" viewBox="0 0 16 16" fill="none" xmlns="http://www.w3.org/2000/svg">
<path d="M14.6667 8H10.6667L9.33333 10H6.66667L5.33333 8H1.33333" stroke="#121212" stroke-width="1.33333" stroke-linecap="round" stroke-linejoin="round"/>
<path d="M3.63333 3.40666L1.33333 7.99999V12C1.33333 12.3536 1.47381 12.6928 1.72386 12.9428C1.9739 13.1928 2.31304 13.3333 2.66667 13.3333H13.3333C13.687 13.3333 14.0261 13.1928 14.2761 12.9428C14.5262 12.6928 14.6667 12.3536 14.6667 12V7.99999L12.3667 3.40666C12.2563 3.18451 12.0861 2.99757 11.8753 2.86684C11.6645 2.73612 11.4214 2.66679 11.1733 2.66666H4.82667C4.57861 2.66679 4.33551 2.73612 4.12469 2.86684C3.91388 2.99757 3.74372 3.18451 3.63333 3.40666Z" stroke="#121212" stroke-width="1.33333" stroke-linecap="round" stroke-linejoin="round"/>
</svg>
