<svg width="154" height="33" viewBox="0 0 154 33" fill="none" xmlns="http://www.w3.org/2000/svg">
<g clip-path="url(#clip0_25_8668)">
<path d="M3.22461 0.5H33.8555C35.3598 0.500256 36.5791 1.72019 36.5791 3.22461V29.5557C36.5791 31.0601 35.3598 32.28 33.8555 32.2803H3.22461C1.72004 32.2803 0.5 31.0602 0.5 29.5557V3.22461C0.5 1.72004 1.72004 0.5 3.22461 0.5Z" stroke="#C1C1C1"/>
<mask id="mask0_25_8668" style="mask-type:luminance" maskUnits="userSpaceOnUse" x="2" y="7" width="33" height="18">
<path d="M34.4741 7.81006H2.60547V24.9701H34.4741V7.81006Z" fill="white"/>
</mask>
<g mask="url(#mask0_25_8668)">
<path d="M19.709 16.4034C19.709 14.1314 18.8094 11.9524 17.2081 10.3459C15.6068 8.73933 13.4349 7.83677 11.1704 7.83677C8.90579 7.83677 6.73394 8.73933 5.13262 10.3459C3.53131 11.9524 2.63172 14.1314 2.63171 16.4034H4.99636C4.99636 14.7606 5.64685 13.1851 6.80468 12.0234C7.96256 10.8618 9.53289 10.2092 11.1704 10.2092C12.8078 10.2092 14.3782 10.8618 15.536 12.0234C16.6939 13.1851 17.3444 14.7606 17.3444 16.4034H19.709Z" fill="#43536D"/>
<path d="M3.87256 20.8591C4.60736 22.0648 5.62803 23.0693 6.84359 23.7832C8.05919 24.4971 9.43189 24.8983 10.8395 24.9508C12.2471 25.0034 13.6457 24.7058 14.9109 24.0846C16.176 23.4634 17.2683 22.5378 18.0905 21.3903L16.1704 20.0056C15.5759 20.8353 14.7861 21.5045 13.8713 21.9537C12.9566 22.4029 11.9452 22.6181 10.9275 22.5801C9.90973 22.5421 8.91715 22.252 8.03818 21.7358C7.15927 21.2196 6.42126 20.4933 5.88994 19.6215L3.87256 20.8591Z" fill="#43536D"/>
<path d="M19.7089 16.4034H2.63159V18.3666H19.7089V16.4034Z" fill="#43536D"/>
<path d="M33.6403 20.095C34.5161 18.255 34.709 16.1618 34.1843 14.1919C33.6597 12.2219 32.4518 10.5044 30.7779 9.34787C29.104 8.19138 27.0738 7.67184 25.0524 7.88266C23.0309 8.09347 21.1506 9.02078 19.7495 10.4979C18.3485 11.9751 17.5186 13.9052 17.4089 15.9413C17.2993 17.9774 17.9171 19.986 19.1514 21.606C20.3857 23.226 22.1554 24.3511 24.1425 24.7792C26.1296 25.2073 28.2038 24.9102 29.9921 23.9413L28.6684 21.4819C27.4636 22.1346 26.0662 22.3347 24.7274 22.0463C23.3887 21.7579 22.1963 20.9999 21.3648 19.9085C20.5332 18.817 20.117 17.4638 20.1908 16.0921C20.2647 14.7203 20.8239 13.42 21.7678 12.4248C22.7117 11.4296 23.9785 10.8048 25.3404 10.6628C26.7023 10.5208 28.0701 10.8708 29.1978 11.6499C30.3256 12.4291 31.1393 13.5863 31.4928 14.9135C31.8464 16.2407 31.7165 17.6509 31.1263 18.8905L33.6403 20.095Z" fill="#FFD700"/>
<path d="M33.2875 21.063H31.3869C31.1251 21.063 30.9128 21.276 30.9128 21.5388V23.4472C30.9128 23.71 31.1251 23.923 31.3869 23.923H33.2875C33.5493 23.923 33.7613 23.71 33.7613 23.4472V21.5388C33.7613 21.276 33.5493 21.063 33.2875 21.063Z" fill="#FFD700"/>
</g>
<path d="M61.3465 24.5811C60.1059 24.5811 58.9772 24.3675 57.9603 23.9404C56.9637 23.493 56.0994 22.893 55.3672 22.1405C54.6351 21.3677 54.0656 20.4932 53.6589 19.517C53.2724 18.5204 53.0792 17.4629 53.0792 16.3443C53.0792 14.8393 53.425 13.4665 54.1165 12.2259C54.8079 10.9649 55.774 9.95821 57.0146 9.20572C58.2552 8.43288 59.7093 8.04646 61.377 8.04646C63.0447 8.04646 64.4786 8.43288 65.6785 9.20572C66.8987 9.95821 67.8445 10.9548 68.5156 12.1954C69.1867 13.436 69.5223 14.7681 69.5223 16.1917C69.5223 16.4358 69.5122 16.6697 69.4918 16.8934C69.4715 17.0968 69.4511 17.2696 69.4308 17.412H56.6485C56.7095 18.3475 56.9637 19.1712 57.4112 19.883C57.8789 20.5745 58.4687 21.1237 59.1806 21.5304C59.8924 21.9168 60.655 22.11 61.4686 22.11C62.3634 22.11 63.2074 21.8863 64.0006 21.4389C64.8141 20.9915 65.3632 20.4017 65.648 19.6695L68.5156 20.4932C68.1699 21.266 67.6411 21.9677 66.9293 22.5981C66.2378 23.2083 65.4141 23.6964 64.4582 24.0625C63.5023 24.4082 62.4651 24.5811 61.3465 24.5811ZM56.557 15.185H66.1971C66.1361 14.2698 65.8717 13.4665 65.4039 12.775C64.9565 12.0632 64.3769 11.5141 63.665 11.1276C62.9736 10.7209 62.2007 10.5175 61.3465 10.5175C60.5127 10.5175 59.7398 10.7209 59.028 11.1276C58.3365 11.5141 57.7671 12.0632 57.3197 12.775C56.8722 13.4665 56.618 14.2698 56.557 15.185Z" fill="#43536D"/>
<path d="M96.8825 24.276H93.5268V15.3376C93.5268 13.8529 93.2827 12.7648 92.7946 12.0733C92.3065 11.3819 91.5947 11.0361 90.6591 11.0361C89.7236 11.0361 88.8491 11.392 88.0356 12.1038C87.2424 12.7953 86.6831 13.7004 86.3577 14.8189V24.276H83.002V15.3376C83.002 13.8529 82.7579 12.7648 82.2698 12.0733C81.7817 11.3819 81.0801 11.0361 80.1649 11.0361C79.2293 11.0361 78.3548 11.3819 77.5413 12.0733C76.7481 12.7648 76.1786 13.6699 75.8329 14.7884V24.276H72.4772V8.32102H75.5278V11.5242C76.1583 10.4056 76.982 9.55146 77.9989 8.96166C79.0361 8.35153 80.2157 8.04646 81.5377 8.04646C82.8596 8.04646 83.8968 8.39221 84.6493 9.08369C85.4222 9.77517 85.9001 10.6395 86.0831 11.6768C86.7746 10.4972 87.6187 9.6023 88.6152 8.99217C89.6321 8.3617 90.7913 8.04646 92.093 8.04646C93.0285 8.04646 93.8115 8.21933 94.442 8.56508C95.0724 8.91082 95.5606 9.38876 95.9063 9.99889C96.252 10.5887 96.4961 11.2802 96.6385 12.0733C96.8012 12.8462 96.8825 13.6699 96.8825 14.5444V24.276Z" fill="#43536D"/>
<path d="M100.967 24.276V8.32099H104.323V24.276H100.967ZM100.967 5.69742V2.00612H104.323V5.69742H100.967Z" fill="#43536D"/>
<path d="M117.542 11.2191C116.241 11.2395 115.081 11.5344 114.065 12.1038C113.068 12.6733 112.356 13.4766 111.929 14.5139V24.276H108.573V8.32101H111.685V11.8903C112.234 10.792 112.956 9.91752 113.851 9.26671C114.746 8.59557 115.692 8.22949 116.688 8.16847C116.892 8.16847 117.054 8.16847 117.176 8.16847C117.319 8.16847 117.441 8.17864 117.542 8.19898V11.2191Z" fill="#43536D"/>
<path d="M127.134 24.5811C125.894 24.5811 124.765 24.3675 123.748 23.9404C122.751 23.493 121.887 22.893 121.155 22.1405C120.423 21.3677 119.853 20.4932 119.446 19.517C119.06 18.5204 118.867 17.4629 118.867 16.3443C118.867 14.8393 119.213 13.4665 119.904 12.2259C120.596 10.9649 121.562 9.95821 122.802 9.20572C124.043 8.43288 125.497 8.04646 127.165 8.04646C128.832 8.04646 130.266 8.43288 131.466 9.20572C132.686 9.95821 133.632 10.9548 134.303 12.1954C134.974 13.436 135.31 14.7681 135.31 16.1917C135.31 16.4358 135.3 16.6697 135.279 16.8934C135.259 17.0968 135.239 17.2696 135.218 17.412H122.436C122.497 18.3475 122.751 19.1712 123.199 19.883C123.667 20.5745 124.256 21.1237 124.968 21.5304C125.68 21.9168 126.443 22.11 127.256 22.11C128.151 22.11 128.995 21.8863 129.788 21.4389C130.602 20.9915 131.151 20.4017 131.436 19.6695L134.303 20.4932C133.957 21.266 133.429 21.9677 132.717 22.5981C132.025 23.2083 131.202 23.6964 130.246 24.0625C129.29 24.4082 128.253 24.5811 127.134 24.5811ZM122.345 15.185H131.985C131.924 14.2698 131.659 13.4665 131.192 12.775C130.744 12.0632 130.164 11.5141 129.453 11.1276C128.761 10.7209 127.988 10.5175 127.134 10.5175C126.3 10.5175 125.527 10.7209 124.816 11.1276C124.124 11.5141 123.555 12.0632 123.107 12.775C122.66 13.4665 122.406 14.2698 122.345 15.185Z" fill="#43536D"/>
<path d="M144.336 24.5811C143.299 24.5811 142.343 24.3675 141.468 23.9404C140.614 23.493 139.872 22.893 139.241 22.1405C138.611 21.3677 138.123 20.483 137.777 19.4865C137.451 18.4696 137.289 17.4018 137.289 16.2833C137.289 15.1443 137.472 14.0766 137.838 13.0801C138.224 12.0835 138.753 11.209 139.424 10.4565C140.116 9.70399 140.919 9.1142 141.834 8.6871C142.749 8.26001 143.736 8.04646 144.793 8.04646C146.014 8.04646 147.112 8.34136 148.088 8.93116C149.085 9.52095 149.868 10.2836 150.437 11.2192V8.32102H153.396V30.7739H150.04V21.2864C148.698 23.4828 146.797 24.5811 144.336 24.5811ZM145.556 21.7134C146.227 21.7134 146.837 21.5813 147.386 21.3169C147.956 21.0525 148.454 20.6966 148.881 20.2491C149.329 19.7814 149.715 19.2526 150.04 18.6628V14.4529C149.939 13.9648 149.735 13.5173 149.43 13.1106C149.146 12.6835 148.79 12.3072 148.363 11.9818C147.936 11.6361 147.478 11.3717 146.99 11.1886C146.502 11.0056 146.024 10.9141 145.556 10.9141C144.844 10.9141 144.193 11.0666 143.604 11.3717C143.014 11.6768 142.495 12.0937 142.048 12.6225C141.621 13.1309 141.285 13.7105 141.041 14.3613C140.817 15.0122 140.705 15.6833 140.705 16.3748C140.705 17.351 140.909 18.2459 141.316 19.0594C141.743 19.8525 142.312 20.4932 143.024 20.9813C143.756 21.4694 144.6 21.7134 145.556 21.7134Z" fill="#43536D"/>
</g>
<defs>
<clipPath id="clip0_25_8668">
<rect width="153.396" height="32.78" fill="white"/>
</clipPath>
</defs>
</svg>
